# xmcd
#
# Track frame offsets:
#	187
#	20259
#	38704
#	59132
#	75069
#	92124
#	114722
#	128547
#	149209
#	168787
#	184724
#	198047
#
# Disc length: 2887 seconds
#
# Revision: 1
# Processed by: cddbd v1.5PL3 Copyright (c) Steve Scherf et al.
# Submitted via: CDex 1.50Beta5
#
DISCID=970b450c
DTITLE=ビートたけし - 浅草キッド
DYEAR=1994
DGENRE=Pop
TTITLE0=ロンリーボーイ・ロンリーガール
TTITLE1=哀しい気分でジョーク
TTITLE2=I FEEL LUCKY
TTITLE3=I’ll Be Back Again…いつかは
TTITLE4=ポツンと1人きり
TTITLE5=捨てきれなくて
TTITLE6=宵闇スターダストON THE BEACH
TTITLE7=見る前に跳べ
TTITLE8=ポケットから落ちた夜
TTITLE9=I’ll Be Back Again…いつかは
TTITLE10=四谷三丁目
TTITLE11=浅草キッド
EXTD=
EXTT0=
EXTT1=
EXTT2=
EXTT3=
EXTT4=
EXTT5=
EXTT6=
EXTT7=
EXTT8=
EXTT9=
EXTT10=
EXTT11=
PLAYORDER=
